<?xml version="1.0" encoding="UTF-8" standalone="no"?>
<!-- Created with Inkscape (http://www.inkscape.org/) -->

<svg
 
   viewBox="0 0 270.93333 270.93334"
   version="1.1"
   id="svg5"
   inkscape:version="1.1.2 (b8e25be833, 2022-02-05)"
   sodipodi:docname="logo.svg"
   xmlns:inkscape="http://www.inkscape.org/namespaces/inkscape"
   xmlns:sodipodi="http://sodipodi.sourceforge.net/DTD/sodipodi-0.dtd"
   xmlns="http://www.w3.org/2000/svg"
   xmlns:svg="http://www.w3.org/2000/svg">
  <sodipodi:namedview
     id="namedview7"
     pagecolor="#ffffff"
     bordercolor="#666666"
     borderopacity="1.0"
     inkscape:pageshadow="2"
     inkscape:pageopacity="0.0"
     inkscape:pagecheckerboard="0"
     inkscape:document-units="mm"
     showgrid="false"
     units="px"
     width="1024px"
     inkscape:zoom="0.23117635"
     inkscape:cx="620.73825"
     inkscape:cy="501.78144"
     inkscape:window-width="1366"
     inkscape:window-height="705"
     inkscape:window-x="-8"
     inkscape:window-y="-8"
     inkscape:window-maximized="1"
     inkscape:current-layer="layer1" />
  <defs
     id="defs2">
    <linearGradient
       id="linearGradient8371"
       inkscape:swatch="solid">
      <stop
         style="stop-color:#f2cc83;stop-opacity:1;"
         offset="0"
         id="stop8369" />
    </linearGradient>
  </defs>
  <g
     inkscape:label="Camada 1"
     inkscape:groupmode="layer"
     id="layer1">
    <g
       inkscape:label="Camada 1"
       id="layer1-6"
       transform="matrix(1.0000126,0,0,1.0000126,-0.13229316,-0.13229316)"
       style="stroke:none">
      <rect
         style="fill:#ffffff;stroke:none;stroke-width:0.264583"
         id="rect44"
         width="270.93332"
         height="270.93332"
         x="0.1322915"
         y="0.1322915" />
      <g
         id="g16549"
         transform="matrix(1.2434168,0,0,1.2434168,3.1549633,-105.81417)"
         inkscape:export-filename="C:\Users\usuario\Downloads\BORRA COMER LOGO.png"
         inkscape:export-xdpi="96"
         inkscape:export-ydpi="96"
         style="stroke:none">
        <g
           id="g16535"
           transform="translate(352.66762,-10.416343)"
           style="stroke:none">
          <g
             id="g14585"
             transform="translate(-8.9282942,4.4641471)"
             style="stroke:none">
            <g
               id="g10007"
               style="stroke:none">
              <path
                 id="path50-2-9"
                 style="fill:#ff0000;fill-opacity:1;stroke:none;stroke-width:0.202591"
                 d="m -284.20727,239.36556 c 0.69247,1.86775 0.87423,3.8819 0.52684,5.83798 -0.54419,3.05742 -2.34034,5.75195 -4.9635,7.44642 l 95.61791,16.99187 c 3.5558,0.63188 7.10055,0.51393 9.84768,-0.3172 2.74713,-0.83113 4.48304,-2.31114 4.80375,-4.11584 0.3207,-1.80471 -0.79901,-3.79219 -3.0916,-5.51891 -2.29258,-1.72672 -5.57976,-3.05818 -9.13556,-3.69007 z"
                 sodipodi:nodetypes="cccsssssc" />
              <path
                 id="path50-6-4"
                 style="fill:#fca300;fill-opacity:1;stroke:none;stroke-width:0.204014"
                 d="m -288.37648,257.38843 c 0.48045,1.63934 0.5757,3.3606 0.27862,5.03465 -0.61674,3.45583 -2.84985,6.41923 -6.03898,8.01397 l 90.74036,16.12509 c 4.57129,0.81235 9.62428,0.72838 13.33447,-0.37138 3.71022,-1.09975 6.04673,-3.20625 6.45329,-5.49409 l 0.404,-2.27341 c 0.10606,-0.59683 -0.2729,-1.26503 -1.04893,-1.84271 -0.77603,-0.57768 -1.89744,-1.02607 -3.08997,-1.23799 z"
                 sodipodi:nodetypes="cccssssssc" />
              <path
                 id="path50-3-0"
                 style="fill:#fca300;fill-opacity:1;stroke:none;stroke-width:0.202591"
                 d="m -237.58217,214.81454 c -25.78295,-4.58179 -49.16508,-1.99523 -60.91402,5.61835 a 11.378455,11.260107 10.076563 0 1 3.60474,0.06 11.378455,11.260107 10.076563 0 1 9.23313,13.077 11.378455,11.260107 10.076563 0 1 -0.17651,0.8155 l 96.96534,17.2313 c 1.39993,0.24878 2.79926,0.33637 4.08423,0.25687 1.31547,-0.0887 2.23383,-0.38004 3.42426,-0.74021 0.96643,-0.39996 1.66781,-0.93487 2.069,-1.56721 0.43173,-0.64156 0.5302,-1.35697 0.31543,-2.09877 -3.97077,-13.41209 -27.94731,-27.20469 -58.6056,-32.65284 z m -1.18949,6.69356 c 0.89596,0.15922 1.71759,0.57478 2.4011,0.95423 0.68377,0.37805 1.20875,0.83759 1.47074,1.31365 0.0103,0.42987 0.26442,0.94743 0.0181,1.35809 -0.24577,0.40783 -0.73854,0.74537 -1.43806,0.94356 -0.67404,0.21737 -1.52417,0.28599 -2.40727,0.21699 -0.8831,-0.069 -1.74856,-0.39851 -2.55294,-0.58542 -1.03363,-0.35959 -1.42884,-0.73805 -1.86716,-1.19708 -0.43831,-0.45903 -0.6108,-0.94993 -0.531,-1.39899 0.10707,-0.6025 0.68562,-1.09637 1.60133,-1.37342 0.91571,-0.27704 2.12918,-0.44058 3.30511,-0.23161 z m -36.64598,-1.82182 c 0.89596,0.15921 1.7185,0.56963 2.401,0.95477 0.68251,0.38515 1.23024,0.71665 1.47026,1.31636 0.0108,0.42702 0.26549,0.94146 0.0192,1.35213 -0.24627,0.41067 -0.7391,0.74862 -1.43864,0.94681 -0.67404,0.21737 -1.52417,0.28599 -2.40727,0.21699 -0.8831,-0.069 -1.74856,-0.39851 -2.55294,-0.58542 -1.03363,-0.3596 -1.42884,-0.73806 -1.86716,-1.19709 -0.43831,-0.45902 -0.6118,-0.94424 -0.53099,-1.39898 0.10606,-0.59683 0.68532,-1.09476 1.60103,-1.3718 0.91571,-0.27705 2.12957,-0.44274 3.3055,-0.23377 z m 71.67598,12.73724 c 0.89595,0.15921 1.71849,0.56963 2.40099,0.95477 0.68251,0.38515 1.23025,0.71665 1.47027,1.31636 0.0108,0.42702 0.26548,0.94146 0.0192,1.35213 -0.24628,0.41067 -0.73912,0.74862 -1.43864,0.94681 -0.67404,0.21737 -1.52417,0.28599 -2.40727,0.21699 -0.8831,-0.069 -1.74856,-0.39851 -2.55294,-0.58542 -1.03363,-0.35959 -1.42886,-0.73806 -1.86716,-1.19709 -0.43832,-0.45902 -0.61181,-0.94424 -0.531,-1.39898 0.10606,-0.59683 0.68534,-1.09476 1.60104,-1.3718 0.91571,-0.27705 2.12957,-0.44274 3.3055,-0.23377 z" />
              <ellipse
                 style="fill:#ffffff;fill-opacity:1;stroke:none;stroke-width:0.0961609;stroke-opacity:0"
                 id="path10742-0-0-4"
                 cx="-232.15916"
                 cy="267.24161"
                 rx="5.0911469"
                 ry="2.9079032"
                 transform="rotate(10.076605)" />
              <ellipse
                 style="fill:#ffffff;fill-opacity:1;stroke:none;stroke-width:0.0961609;stroke-opacity:0"
                 id="path10742-0-0-4-2"
                 cx="-196.48618"
                 cy="262.22021"
                 rx="5.0911469"
                 ry="2.9079032"
                 transform="rotate(10.076605)" />
              <ellipse
                 style="fill:#ffffff;fill-opacity:1;stroke:none;stroke-width:0.0961609;stroke-opacity:0"
                 id="path10742-0-0-4-1"
                 cx="-160.35188"
                 cy="266.63297"
                 rx="5.0911469"
                 ry="2.9079032"
                 transform="rotate(10.076605)" />
            </g>
          </g>
          <text
             xml:space="preserve"
             style="font-style:normal;font-weight:normal;font-size:47.5726px;line-height:1.25;font-family:sans-serif;fill:#ff0000;fill-opacity:1;stroke:none;stroke-width:0.247774"
             x="-229.15222"
             y="161.34557"
             id="text58743-5"
             transform="scale(1.0793254,0.92650464)"
             inkscape:export-filename="C:\Users\usuario\Downloads\bora comer.png"
             inkscape:export-xdpi="96"
             inkscape:export-ydpi="96"><tspan
               sodipodi:role="line"
               id="tspan58741-9"
               style="font-style:normal;font-variant:normal;font-weight:bold;font-stretch:normal;font-size:47.5726px;font-family:'Segoe Print';-inkscape-font-specification:'Segoe Print Bold';text-align:center;text-anchor:middle;fill:#ff0000;fill-opacity:1;stroke:none;stroke-width:0.247774"
               x="-229.15222"
               y="161.34557">BORA</tspan><tspan
               sodipodi:role="line"
               style="font-style:normal;font-variant:normal;font-weight:bold;font-stretch:normal;font-size:47.5726px;font-family:'Segoe Print';-inkscape-font-specification:'Segoe Print Bold';text-align:center;text-anchor:middle;fill:#ff0000;fill-opacity:1;stroke:none;stroke-width:0.247774"
               x="-229.15222"
               y="223.45744"
               id="tspan9057">COMER</tspan></text>
        </g>
      </g>
    </g>
  </g>
</svg>
